<svg width="1124" height="320" viewBox="0 0 1124 320" fill="none" xmlns="http://www.w3.org/2000/svg">
<mask id="mask0" mask-type="alpha" maskUnits="userSpaceOnUse" x="0" y="0" width="1124" height="320">
<rect width="1124" height="320" rx="6" fill="white"/>
</mask>
<g mask="url(#mask0)">
<g opacity="0.3">
<path fill-rule="evenodd" clip-rule="evenodd" d="M63.7921 50.2431C66.441 52.7128 68.1231 56.0549 69.5753 59.4057C71.2211 63.2144 79.192 84.839 78.628 94.1186C82.0648 102.147 85.3627 110.234 88.5208 118.375C88.8703 108.922 91.4172 97.2367 92.2614 94.1925C93.4575 89.8865 95.0407 85.5001 98.2331 82.3299C101.425 79.164 106.627 77.5705 110.62 79.6769C113.82 81.3594 115.55 85.0296 115.748 88.5981C115.946 92.1624 114.84 95.6673 113.562 99.0155C111.909 103.349 100.153 129.506 93.3437 131.145C96.8018 140.554 100.075 150.032 103.163 159.569C104.997 149.757 111.429 135.901 113.155 132.677C115.298 128.674 117.838 124.684 121.678 122.252C125.523 119.829 130.975 119.399 134.414 122.373C137.161 124.749 138.029 128.764 137.416 132.341C136.803 135.918 134.928 139.146 132.923 142.171C130.374 146.023 113.581 168.488 106.296 169.476C108.697 177.25 110.975 185.062 113.13 192.908C115.883 183.835 126.774 169.52 129.369 166.495C132.272 163.118 135.558 159.822 139.794 158.267C144.034 156.713 149.436 157.385 152.18 160.883C154.382 163.683 154.408 167.669 153.083 170.953C151.763 174.229 149.277 176.928 146.709 179.415C143.422 182.589 122.254 200.836 115.073 200.116C117.441 209.077 119.649 218.081 121.695 227.122C124.465 218.423 138.739 203.679 141.901 200.777C145.2 197.757 148.858 194.874 153.202 193.881C157.546 192.887 162.715 194.299 164.906 198.209C166.657 201.339 166.128 205.378 164.385 208.512C162.639 211.643 159.847 214.035 156.996 216.197C153.289 219.015 129.338 235.11 122.938 232.708C127.144 251.944 130.619 271.341 133.355 290.841C137.325 282.044 149.877 269.105 152.82 266.409C156.115 263.385 159.774 260.503 164.117 259.509C168.461 258.52 173.634 259.927 175.82 263.837C177.571 266.968 177.047 271.002 175.3 274.14C173.553 277.275 170.762 279.667 167.911 281.829C164.3 284.569 141.486 299.909 134.389 298.489C134.873 302.209 135.33 305.932 135.761 309.658C138.994 302.786 164.265 296.837 169.088 296.005C173.499 295.246 178.148 294.794 182.371 296.287C186.587 297.78 190.223 301.722 189.989 306.158C189.802 309.7 187.195 312.791 184.039 314.474C180.883 316.16 177.233 316.662 173.661 316.945C169.073 317.306 140.895 317.928 136.112 312.752C136.914 319.951 137.616 327.162 138.216 334.381C141.734 329.193 159.318 324.202 162.811 323.437C166.15 322.705 169.687 322.199 172.954 323.228C176.221 324.25 179.117 327.194 179.084 330.649C179.054 333.411 177.165 335.891 174.809 337.3C172.456 338.708 169.687 339.214 166.967 339.555C163.564 339.972 143.02 341.3 138.49 337.767C139.353 348.718 139.983 359.686 140.378 370.663C143.561 364.941 158.608 357.023 161.726 355.614C164.818 354.215 168.144 353.005 171.521 353.325C174.897 353.65 178.307 355.905 178.967 359.261C179.498 361.946 178.165 364.74 176.163 366.595C174.166 368.442 171.583 369.504 169.013 370.385C165.668 371.535 144.573 377.44 140.497 374.18C140.751 382.242 140.878 390.309 140.878 398.375C140.878 417.266 140.183 436.157 138.776 455L135.863 454.781C137.262 436.015 137.957 417.193 137.957 398.375C137.957 387.129 137.708 375.882 137.214 364.646C131.705 367.327 113.461 361.061 110.03 359.644C106.818 358.323 103.585 356.695 101.439 353.959C99.3021 351.231 98.5697 347.123 100.574 344.293C102.184 342.027 105.182 341.07 107.957 341.266C110.732 341.463 113.336 342.643 115.799 343.934C118.449 345.329 132.082 353.489 136.958 359.265C136.291 346.203 135.292 333.158 133.963 320.147C130.361 326.539 102.264 326.123 97.122 325.742C92.5597 325.41 87.8455 324.721 84.0515 322.281C80.2576 319.846 77.6661 315.216 79.0204 311.042C80.1056 307.702 83.4655 305.387 87.0164 304.537C90.5672 303.69 94.3048 304.089 97.9121 304.682C102.417 305.418 129.071 311.286 133.657 317.205C132.258 304.014 130.52 290.857 128.446 277.755C123.06 281.506 105.076 281.207 101.512 280.934C98.0218 280.662 94.4156 280.115 91.5159 278.164C88.6163 276.216 86.6301 272.511 87.6684 269.173C88.4957 266.497 91.0679 264.649 93.7822 263.968C96.4966 263.292 99.3575 263.606 102.115 264.085C105.158 264.603 121.423 268.33 127.589 272.458C125.725 261.187 123.613 249.956 121.253 238.778C116.133 243.273 94.3987 242.942 90.2221 242.641C86.2858 242.352 82.2225 241.77 78.9473 239.696C75.6766 237.626 73.4347 233.689 74.6038 230.142C75.5408 227.305 78.4394 225.335 81.5044 224.613C84.565 223.895 87.792 224.234 90.9007 224.732C94.4352 225.304 113.791 229.486 120.234 234.026C118.648 226.739 116.956 219.476 115.16 212.238C110.69 218.234 83.6074 217.824 78.5645 217.454C74.0065 217.122 69.2923 216.433 65.4983 213.993C61.7043 211.557 59.1084 206.926 60.4628 202.751C61.548 199.411 64.9079 197.091 68.4588 196.249C72.0097 195.402 75.7472 195.796 79.3546 196.39C83.5929 197.083 107.437 202.318 114.063 207.869C111.777 198.882 109.33 189.937 106.722 181.039C103.013 187.565 74.629 180.369 69.6329 178.771C65.3376 177.4 60.9781 175.636 57.9247 172.335C54.8713 169.037 53.4881 163.819 55.792 159.964C57.6335 156.875 61.4106 155.324 65.0207 155.29C68.6308 155.252 72.121 156.504 75.4399 157.915C79.1977 159.514 99.4147 169.476 105.38 176.51C102.804 167.914 100.077 159.363 97.2008 150.863C91.2742 155.468 66.3704 144.845 61.8893 142.599C57.8901 140.587 53.8781 138.179 51.3585 134.405C48.8389 130.628 48.2301 125.16 51.0245 121.599C53.2609 118.748 57.1756 117.726 60.7056 118.217C64.2398 118.7 67.4739 120.469 70.5178 122.377C73.4116 124.189 86.8412 133.659 93.9166 141.363C88.754 126.74 83.1466 112.275 77.0994 97.9952C77.0038 98.057 76.9034 98.1111 76.7979 98.157C69.784 101.217 53.6906 75.6172 51.1184 70.9078C48.9338 66.9147 46.9705 62.5916 47.0003 58.0211C47.0344 53.4507 49.5896 48.6111 53.8951 47.3307C57.3445 46.3063 61.1475 47.769 63.7921 50.2431ZM165.732 250.104C168.578 247.946 171.374 245.554 173.121 242.419C174.863 239.285 175.388 235.246 173.637 232.121C171.45 228.206 166.282 226.799 161.938 227.788C157.59 228.782 153.932 231.664 150.637 234.688C146.754 238.253 126.106 259.677 130.598 265.831C134.62 271.336 161.765 253.114 165.732 250.104Z" fill="#788490"/>
</g>
<g opacity="0.1">
<mask id="mask1" mask-type="alpha" maskUnits="userSpaceOnUse" x="206" y="148" width="123" height="211">
<path fill-rule="evenodd" clip-rule="evenodd" d="M329 148H206V359H329V148Z" fill="white"/>
</mask>
<g mask="url(#mask1)">
<path fill-rule="evenodd" clip-rule="evenodd" d="M314.575 284.528C317.217 280.801 319.912 276.272 318.424 271.969C315.607 263.82 303.308 266.382 295.647 270.507C309.087 259.399 323.195 247.329 328.205 230.754C328.857 228.599 329.339 226.282 328.699 224.127C327.434 219.88 322.122 217.902 317.716 218.749C313.313 219.598 309.643 222.493 306.169 225.293C319.985 204.262 324.012 177.241 316.918 153.179C316.356 151.27 315.55 149.174 313.719 148.349C311.703 147.441 309.368 148.467 307.466 149.583C295.328 156.686 286.008 168.345 281.828 181.643C284.182 173.279 271.608 167.033 264.012 171.417C256.419 175.798 253.904 185.403 253.299 194.063C252.7 202.72 253.196 211.876 249.027 219.523C251.692 214.916 246.605 208.716 241.235 209.003C235.865 209.291 231.68 214.172 230.451 219.335C229.223 224.5 230.282 229.894 231.339 235.092C232.83 242.408 234.32 249.721 235.808 257.031C233.192 257.367 230.457 256.671 228.329 255.131C219.774 260.412 219.526 272.397 220.27 282.327C222.171 307.758 223.506 337.139 237.851 359C269.385 348.209 296.206 310.4 314.575 284.528" fill="#8791B5"/>
<path opacity="0.633952" fill-rule="evenodd" clip-rule="evenodd" d="M298.097 186.231C298.057 186.385 298.013 186.546 297.968 186.711C297.494 188.457 296.883 190.706 298.537 191.031C301.19 191.548 302.192 181.803 299.508 182.003C298.777 182.055 298.581 183.415 298.402 184.666C298.316 185.265 298.233 185.839 298.097 186.231ZM276.276 201.538C276.246 201.707 276.217 201.871 276.191 202.028C276.089 202.435 276.067 203.011 276.044 203.613V203.613C275.997 204.871 275.945 206.24 275.142 206.409C272.201 207.021 272.133 197.295 275.127 197.387C276.996 197.444 276.59 199.751 276.276 201.538ZM235.364 274.865C235.335 275.028 235.307 275.187 235.282 275.339C235.179 275.746 235.158 276.323 235.135 276.924C235.088 278.182 235.036 279.552 234.233 279.719C231.292 280.334 231.224 270.605 234.218 270.697C236.09 270.754 235.68 273.076 235.364 274.865ZM243.764 246.113C243.696 245.971 243.627 245.822 243.556 245.668C242.786 244 241.787 241.836 240.026 242.941C237.205 244.704 243.043 252.681 245.395 250.367C246.038 249.735 245.271 248.573 244.568 247.507C244.232 246.998 243.911 246.511 243.764 246.113ZM268.101 291.821L268.101 291.822C268.173 291.976 268.242 292.127 268.311 292.27C268.458 292.669 268.779 293.157 269.115 293.667C269.818 294.734 270.582 295.894 269.941 296.526C267.587 298.838 261.751 290.863 264.572 289.098C266.33 287.997 267.329 290.154 268.101 291.821ZM294.994 238.473L294.994 238.473C293.32 239.283 291.147 240.335 292.346 241.98C294.271 244.61 302.174 238.668 299.71 236.51C299.038 235.921 297.881 236.708 296.821 237.429C296.316 237.772 295.833 238.1 295.435 238.258C295.294 238.328 295.146 238.4 294.994 238.473ZM285.907 304.54C286.058 304.467 286.204 304.397 286.344 304.327C286.744 304.169 287.228 303.84 287.734 303.497C288.793 302.776 289.948 301.992 290.619 302.579C293.083 304.737 285.18 310.681 283.255 308.048C282.055 306.402 284.231 305.35 285.907 304.54ZM260.505 227.881L260.505 227.88L260.504 227.879L260.504 227.878C260.43 227.723 260.357 227.572 260.287 227.429C260.133 227.032 259.808 226.55 259.467 226.046C258.752 224.985 257.971 223.828 258.586 223.174C260.833 220.782 266.746 228.699 264.026 230.548C262.332 231.701 261.302 229.548 260.505 227.881ZM265.37 197.092C265.33 197.246 265.286 197.406 265.242 197.571C264.767 199.317 264.156 201.569 265.808 201.892C268.463 202.408 269.465 192.664 266.781 192.864C266.048 192.917 265.853 194.277 265.674 195.527L265.674 195.527L265.674 195.527L265.674 195.527V195.527C265.588 196.126 265.506 196.699 265.37 197.092ZM285.035 274.595C285.189 274.524 285.339 274.455 285.481 274.387C285.88 274.239 286.369 273.917 286.879 273.581C287.948 272.877 289.113 272.11 289.754 272.74C292.102 275.05 284.107 280.885 282.309 278.108C281.186 276.374 283.358 275.37 285.035 274.595ZM296.853 210.335L296.853 210.335C295.176 211.111 293.005 212.115 294.127 213.849C295.928 216.625 303.918 210.79 301.573 208.481C300.93 207.851 299.767 208.617 298.699 209.32C298.188 209.657 297.699 209.979 297.299 210.127C297.157 210.195 297.008 210.264 296.855 210.335L296.854 210.335L296.853 210.335ZM255.032 320.755L255.034 320.754C255.188 320.682 255.338 320.613 255.481 320.545C255.88 320.397 256.369 320.075 256.879 319.739C257.948 319.035 259.113 318.268 259.754 318.898C262.102 321.208 254.107 327.043 252.309 324.266C251.187 322.531 253.355 321.529 255.032 320.755ZM238.515 299.624C238.456 299.481 238.396 299.331 238.335 299.176C237.668 297.504 236.803 295.336 234.796 296.258C231.581 297.733 237.093 305.899 239.858 303.858C240.612 303.299 239.898 302.114 239.244 301.029C238.933 300.512 238.635 300.018 238.515 299.624ZM259.922 258.999C259.839 259.153 259.759 259.303 259.683 259.446C259.444 259.816 259.24 260.38 259.028 260.968C258.582 262.203 258.097 263.548 257.159 263.451C253.737 263.096 256.703 253.416 259.966 254.488C262.002 255.155 260.827 257.327 259.922 258.999Z" fill="#F0F6F4"/>
<path fill-rule="evenodd" clip-rule="evenodd" d="M291 202.707C266.353 262.501 247.163 324.619 233.759 388L232 387.617C245.428 324.123 264.652 261.899 289.341 202L291 202.707" fill="#163B53"/>
</g>
</g>
</g>
<g clip-path="url(#clip0)">
<path opacity="0.5" d="M1055.95 318C1055.95 318 1094.39 257.126 1076.86 207.651C1059.32 158.176 1028.22 238.668 1008.03 238.317C987.835 237.961 1070.3 144.61 1009.35 120.481C957.671 95.8423 934.272 111.788 943.207 160.317C953.824 217.981 937.14 229.924 919.228 207.015C898.561 180.581 877.903 211.613 896.79 241.628C915.676 271.643 857.349 249.288 870.524 278.916C882.743 306.403 874.727 314.083 874.727 314.083L890.043 318H1055.95Z" fill="#3B435E"/>
<path d="M925.932 222.392L909.664 210.016C905.616 206.939 900.036 208.002 897.201 212.397L897.145 212.483C894.311 216.878 895.29 222.936 899.338 226.013L915.605 238.388C919.653 241.465 925.234 240.402 928.068 236.008L928.125 235.921C930.959 231.532 929.98 225.474 925.932 222.392Z" fill="#3B435E"/>
<path d="M1004.72 107.907L985.763 101.448C981.05 99.8403 976.027 102.689 974.547 107.806L974.519 107.907C973.038 113.024 975.662 118.477 980.375 120.084L999.328 126.544C1004.04 128.151 1009.06 125.303 1010.54 120.186L1010.57 120.084C1012.05 114.967 1009.43 109.515 1004.72 107.907Z" fill="#3B435E"/>
<path d="M958.626 221.176L951.472 215.734C950.408 214.925 948.937 215.205 948.192 216.359L948.178 216.385C947.433 217.539 947.691 219.136 948.754 219.945L955.909 225.387C956.972 226.196 958.444 225.916 959.189 224.762L959.203 224.736C959.952 223.582 959.695 221.985 958.626 221.176Z" fill="#3B435E"/>
<path d="M948.515 269.608L939.871 263.032C939.088 262.437 938.006 262.64 937.458 263.494L937.448 263.51C936.9 264.359 937.088 265.534 937.875 266.129L946.519 272.706C947.302 273.301 948.384 273.098 948.932 272.243L948.941 272.228C949.49 271.373 949.297 270.203 948.515 269.608Z" fill="#3B435E"/>
<path d="M976.599 255.967L968.639 249.909C966.54 248.312 963.644 248.866 962.173 251.145L962.145 251.191C960.674 253.469 961.184 256.613 963.283 258.21L971.244 264.268C973.343 265.865 976.238 265.31 977.71 263.032L977.738 262.986C979.209 260.702 978.698 257.564 976.599 255.967Z" fill="#3B435E"/>
<path d="M905.171 280.035L899.366 275.62C897.834 274.456 895.726 274.857 894.653 276.521L894.629 276.556C893.556 278.219 893.927 280.508 895.459 281.673L901.264 286.088C902.796 287.253 904.904 286.851 905.977 285.188L906.001 285.152C907.074 283.494 906.703 281.2 905.171 280.035Z" fill="#3B435E"/>
<path d="M1059.01 262.721L1048.08 254.405C1046.64 253.317 1044.67 253.693 1043.67 255.249L1043.65 255.28C1042.64 256.836 1042.99 258.983 1044.42 260.071L1055.36 268.388C1056.79 269.476 1058.77 269.1 1059.77 267.543L1059.79 267.513C1060.79 265.956 1060.44 263.81 1059.01 262.721Z" fill="#3B435E"/>
<path d="M1062.43 218.709L1055.08 213.119C1054.11 212.387 1052.79 212.641 1052.11 213.684L1052.1 213.704C1051.42 214.752 1051.66 216.191 1052.62 216.924L1059.97 222.514C1060.93 223.246 1062.26 222.992 1062.93 221.949L1062.95 221.929C1063.62 220.886 1063.39 219.441 1062.43 218.709Z" fill="#3B435E"/>
<path d="M863.196 303.986L863.21 303.925C863.29 303.544 863.07 303.163 862.7 303.041C860.788 302.377 859.607 300.867 859.57 299.696C859.532 298.365 860.971 297.758 861.833 297.513C865.773 296.403 871.316 297.81 878.339 299.588C879.843 299.969 881.394 300.364 883.006 300.75C889.059 302.203 892.517 302.128 894.218 300.496C895.282 299.475 895.595 297.918 895.174 295.74C894.986 294.884 895.305 293.999 895.994 293.458C898.439 291.285 905.041 291.017 910.715 292.856C914.159 293.976 916.853 294.004 918.732 292.945C919.706 292.428 920.437 291.548 920.765 290.49L919.242 290.113C919.008 290.763 918.535 291.294 917.921 291.595C916.904 292.15 914.908 292.56 911.202 291.355C904.957 289.328 897.821 289.732 894.958 292.273C893.852 293.181 893.346 294.63 893.642 296.031C893.951 297.64 893.787 298.727 893.14 299.348C891.922 300.519 888.638 300.472 883.381 299.212C881.774 298.826 880.228 298.435 878.733 298.054C871.485 296.215 865.759 294.766 861.416 295.989C858.272 296.878 857.986 298.901 858.01 299.734C858.066 301.752 859.823 303.709 862.217 304.537C862.611 304.673 863.042 304.466 863.178 304.066C863.182 304.038 863.187 304.015 863.196 303.986Z" fill="url(#paint0_linear)"/>
<path d="M922.782 293.908C920.803 293.908 919.198 292.297 919.198 290.309C919.198 288.322 920.803 286.71 922.782 286.71C924.762 286.71 926.367 288.322 926.367 290.309C926.367 292.297 924.762 293.908 922.782 293.908Z" fill="url(#paint1_linear)"/>
<path d="M945.16 265.569L929.328 273.153C923.214 276.079 919.826 282.768 921.073 289.453C922.394 296.552 928.569 301.698 935.761 301.698H954.882L945.16 265.569Z" fill="url(#paint2_linear)"/>
<path d="M945.155 265.569C945.155 265.569 951.349 264.939 957 274.625C962.645 284.311 960.139 299.163 954.882 301.698C954.882 301.698 945.628 296.175 943.745 282.947C941.861 269.714 945.155 265.569 945.155 265.569Z" fill="url(#paint3_linear)"/>
<path d="M952.119 289.693C951.758 288.247 952.064 286.924 952.802 286.738C953.54 286.553 954.431 287.575 954.791 289.022C955.152 290.469 954.846 291.792 954.108 291.977C953.37 292.163 952.479 291.14 952.119 289.693Z" fill="#1D164D"/>
<path d="M948.873 279.143C948.513 277.696 948.819 276.373 949.557 276.187C950.295 276.002 951.186 277.024 951.546 278.471C951.907 279.918 951.601 281.241 950.862 281.426C950.124 281.612 949.234 280.589 948.873 279.143Z" fill="#1D164D"/>
<path d="M921.071 289.452C920.096 284.207 921.966 278.83 925.99 275.34C924.252 277.231 924.374 280.472 927.115 283.629C930.357 287.359 923.77 291.137 930.568 296.387C937.366 301.637 947.721 301.698 947.721 301.698H935.764C928.567 301.698 922.397 296.551 921.071 289.452Z" fill="url(#paint4_linear)"/>
<path d="M927.209 274.389C927.18 274.413 927.152 274.432 927.124 274.451L927.209 274.389Z" fill="url(#paint5_linear)"/>
<path d="M982.171 146.919L983.581 146.698L985.502 150.15L984.752 150.941C984.508 151.2 984.288 151.482 984.101 151.783L982.128 154.935L977.813 152.098L980.423 148.057C980.821 147.441 981.454 147.032 982.171 146.919Z" fill="url(#paint6_linear)"/>
<path d="M983.206 214.566V304.818H991.414L997.482 245.963L1006.46 304.818H1015.05V214.566H983.206Z" fill="url(#paint7_linear)"/>
<path d="M1015.05 229.31V231.648C1009.8 225.476 1001.45 221.383 992.286 220.593L992.422 219.021C1001.33 219.788 1009.51 223.561 1015.05 229.31Z" fill="url(#paint8_linear)"/>
<path d="M996.24 214.957C997.613 214.957 998.742 216.015 998.86 217.361C1009.08 218.335 1018.32 223.246 1023.63 230.561C1030.94 240.614 1030.5 252.554 1030.08 264.098C1029.99 266.718 1029.89 269.428 1029.89 272.039C1029.89 284.501 1034.07 294.742 1042.3 302.49C1052.54 312.12 1068.9 317.261 1086.18 316.311C1086.61 316.288 1086.98 316.612 1087 317.045V317.05C1087.03 317.487 1086.7 317.859 1086.26 317.882C1084.87 317.958 1083.49 317.995 1082.12 317.995C1065.97 317.995 1050.95 312.778 1041.23 303.638C1032.66 295.584 1028.32 284.952 1028.32 272.039C1028.32 269.4 1028.42 266.676 1028.51 264.042C1028.92 252.765 1029.35 241.108 1022.36 231.493C1017.28 224.493 1008.37 219.798 998.522 218.913C998.068 219.708 997.22 220.24 996.24 220.24C994.788 220.24 993.612 219.059 993.612 217.601C993.612 216.142 994.788 214.957 996.24 214.957Z" fill="#B4E3E8"/>
<path d="M964.563 227.447L980.203 229.503C988.074 230.538 995.294 224.968 996.325 217.06C996.329 217.032 996.334 217.003 996.334 216.97C997.271 209.401 992.188 202.406 984.724 200.999L970.185 198.257L964.563 227.447Z" fill="url(#paint9_linear)"/>
<path d="M960.004 183.725L977.813 152.093L982.128 154.93L974.285 177.647L984.358 172.769C985.122 172.402 985.914 172.105 986.729 171.88L991.583 170.558L1000.56 170.031L1012.46 174.26C1015.3 175.271 1017.31 177.835 1017.62 180.846L1020.08 204.805C1020.27 206.555 1019.41 208.249 1017.91 209.138L1015.05 210.507V214.496H1003L992.291 218.043L989.629 214.496H983.206V188.561L967.44 193.153C964.01 194.15 960.421 192.165 959.428 188.721C958.941 187.051 959.151 185.245 960.004 183.725Z" fill="url(#paint10_linear)"/>
<path d="M1000.57 162.527C1000.57 162.527 1007.08 157.724 1007.63 152.093C1008.17 146.462 1003.39 147.408 1003.39 147.408C1003.39 147.408 1004.91 142.421 1001.46 140.318C998.002 138.216 994.9 140.897 994.9 140.897C994.9 140.897 991.363 135.911 984.672 138.536C977.977 141.161 981.955 149.426 985.506 150.15C985.506 150.15 985.553 153.077 987.099 154.704C988.641 156.332 999.464 158.12 1000.57 162.527Z" fill="url(#paint11_linear)"/>
<path d="M1000.57 170.036V159.169C1000.57 159.169 1003.49 157.409 1002.76 155.071C1002.03 152.733 998.869 154.046 998.499 155.937C998.499 155.937 996.461 154.206 997.871 151.03C997.871 151.03 993.401 154.074 986.917 151.03C986.917 151.03 987.31 161.7 988.215 164.221C989.119 166.743 991.588 166.07 991.588 166.07V170.558C991.588 170.562 992.563 175.761 1000.57 170.036Z" fill="url(#paint12_linear)"/>
<path d="M1007.62 312.43L1006.46 304.819H1015.05V312.43H1007.62Z" fill="url(#paint13_linear)"/>
<path d="M990.628 312.43H983.206V304.819H991.41L990.628 312.43Z" fill="url(#paint14_linear)"/>
<path d="M997.505 163.12C997.505 163.12 996.409 167.688 991.583 167.688V166.075C991.583 166.07 995.228 165.642 997.505 163.12Z" fill="#1D164D"/>
<path d="M989.648 214.51L995.716 210.653L1008.77 202.345L1005.55 184.313C1005.67 185.047 1006.15 188.655 1005.11 191.003C1003.94 193.632 1006.29 197.593 1004.48 197.989C1002.68 198.384 1000.09 197.306 997.998 203.502C997.299 205.459 996.292 207.298 995.022 208.94C993.467 211.01 991.658 212.882 989.648 214.51Z" fill="#FF8A5F"/>
<path d="M964.563 227.447L980.202 229.503C988.074 230.538 995.294 224.972 996.325 217.069C996.329 217.036 996.334 217.003 996.339 216.975C996.348 216.895 996.357 216.815 996.367 216.731L992.295 218.076L989.639 214.529L989.657 214.515L995.725 210.657C995.533 210.069 995.303 209.5 995.036 208.945C993.059 204.796 989.231 201.841 984.728 200.999L983.215 200.712L970.195 198.257L964.563 227.447Z" fill="url(#paint15_linear)"/>
<path d="M984.719 200.999C989.222 201.846 993.05 204.8 995.027 208.945C995.294 209.5 995.524 210.074 995.716 210.657L989.648 214.515L989.63 214.529L992.286 218.076L996.358 216.73C996.348 216.81 996.339 216.89 996.33 216.975C995.35 224.888 988.168 230.5 980.292 229.517C980.259 229.512 980.226 229.507 980.198 229.503L978.774 229.315C978.774 229.315 980.746 229.55 983.15 226.713C985.553 223.876 988.692 226.501 989.006 223.669C989.32 220.837 987.559 219.802 985.136 218.631C982.714 217.46 983.047 217.474 986.05 215.352C989.053 213.23 992.141 215.169 991.199 210.549C990.257 205.929 984.719 200.999 984.719 200.999Z" fill="url(#paint16_linear)"/>
<path d="M1003 214.529L1015.05 210.54V212.798L1003 214.529Z" fill="#FF8A5F"/>
<path d="M970.181 198.252C970.181 198.252 975.541 203.267 973.737 213.819C971.933 224.37 964.558 227.442 964.558 227.442C964.558 227.442 957.423 222.009 959.775 211.457C962.131 200.905 970.181 198.252 970.181 198.252Z" fill="url(#paint17_linear)"/>
<path d="M992.291 218.076L988.683 219.539C986.968 220.235 985.005 219.567 984.073 217.963C983.932 217.718 984.012 217.408 984.255 217.267C984.288 217.248 984.321 217.234 984.354 217.22L987.254 216.269C987.254 216.269 986.237 216.025 986.054 215.343C985.872 214.661 986.771 215.277 987.676 215.131C988.58 214.985 988.669 214.567 989.629 214.529L992.291 218.076Z" fill="url(#paint18_linear)"/>
<path d="M993.608 228.929L997.478 245.94L996.063 259.667L993.608 228.929Z" fill="#1D164D"/>
<path d="M969.106 205.152C969.551 205.947 969.373 206.949 968.684 207.546C968.525 207.692 968.305 207.753 968.094 207.716L953.761 205.232C952.951 205.091 952.407 204.319 952.548 203.505C952.689 202.691 953.457 202.146 954.267 202.287L968.591 204.771C968.815 204.799 969.008 204.945 969.106 205.152Z" fill="url(#paint19_linear)"/>
<path d="M959.323 204.677C959.464 203.863 960.232 203.317 961.047 203.458L968.628 204.771C968.839 204.818 969.017 204.959 969.111 205.152C969.556 205.947 969.378 206.949 968.689 207.546C968.53 207.692 968.31 207.753 968.099 207.716L960.499 206.398C959.707 206.234 959.187 205.472 959.323 204.677Z" fill="url(#paint20_linear)"/>
<path d="M967.26 207.565L968.089 207.711C968.3 207.749 968.521 207.687 968.68 207.546C969.373 206.954 969.547 205.947 969.102 205.152C969.003 204.945 968.811 204.799 968.586 204.761L967.747 204.615C967.972 204.658 968.164 204.799 968.263 205.006C968.708 205.806 968.53 206.803 967.841 207.4C967.687 207.542 967.471 207.603 967.26 207.565Z" fill="#1D164D"/>
<path d="M967.474 215.504C967.919 216.299 967.741 217.301 967.052 217.898C966.893 218.044 966.673 218.105 966.462 218.067L952.13 215.584C951.319 215.442 950.775 214.671 950.916 213.852C951.057 213.039 951.825 212.493 952.64 212.634L966.963 215.118C967.179 215.155 967.376 215.297 967.474 215.504Z" fill="url(#paint21_linear)"/>
<path d="M957.691 215.033C957.832 214.219 958.6 213.674 959.411 213.815L966.992 215.127C967.202 215.174 967.381 215.315 967.474 215.508C967.919 216.303 967.741 217.305 967.053 217.903C966.893 218.049 966.673 218.11 966.462 218.072L958.863 216.755C958.071 216.586 957.555 215.828 957.691 215.033Z" fill="url(#paint22_linear)"/>
<path d="M965.628 217.922L966.457 218.067C966.668 218.105 966.888 218.044 967.052 217.903C967.746 217.31 967.919 216.303 967.474 215.508C967.376 215.301 967.184 215.155 966.959 215.118L966.12 214.972C966.345 215.01 966.537 215.155 966.635 215.362C967.08 216.162 966.902 217.159 966.214 217.757C966.054 217.893 965.839 217.954 965.628 217.922Z" fill="#1D164D"/>
<g opacity="0.2">
<path opacity="0.2" d="M974.813 177.411L984.362 172.787C984.432 172.754 984.502 172.721 984.572 172.688C984.558 174.189 985.144 175.633 986.203 176.692L991.605 182.12C993.779 184.303 997.307 184.303 999.481 182.12L1004.89 176.692C1006.08 175.502 1006.67 173.832 1006.49 172.157L1012.46 174.278C1014.05 174.848 1015.42 175.916 1016.36 177.332L999.481 194.276C997.307 196.459 993.779 196.459 991.605 194.276L974.813 177.411Z" fill="white"/>
</g>
<path d="M1015.05 308.624C1016.1 308.624 1016.95 309.48 1016.95 310.539V315.544C1016.95 316.899 1015.86 318 1014.51 318H996.198C995.2 318 994.395 317.191 994.395 316.189C994.395 315.667 994.774 315.22 995.294 315.144C997.07 314.881 1001.03 314.227 1003.02 313.314C1005.64 312.12 1005.75 309.038 1007.11 309.038C1007.11 309.034 1010.55 312.745 1015.05 308.624Z" fill="#596F7E"/>
<path d="M991.148 308.624H991.016C992.094 308.615 992.994 309.457 993.054 310.539V315.544C993.054 316.899 991.958 318 990.609 318H972.298C971.3 318 970.495 317.191 970.495 316.189C970.495 315.667 970.874 315.22 971.394 315.144C973.17 314.881 977.134 314.227 979.125 313.315C981.739 312.12 981.852 309.038 983.206 309.038C983.206 309.034 986.654 312.745 991.148 308.624Z" fill="#596F7E"/>
<path d="M1003.53 313.812C1003.3 313.671 1003.07 313.525 1002.84 313.388C1002.9 313.365 1002.96 313.337 1003.02 313.308C1003.18 313.233 1003.34 313.148 1003.5 313.05C1003.61 313.125 1003.74 313.196 1003.86 313.271C1005.04 314 1005.9 314.48 1006.19 314.033C1006.26 313.953 1006.27 313.84 1006.24 313.746C1006.08 313.304 1005.21 312.81 1004.29 312.419C1004.45 312.264 1004.6 312.099 1004.74 311.925C1005.64 312.33 1006.6 312.89 1006.83 313.53C1006.94 313.817 1006.89 314.132 1006.71 314.381C1006.07 315.369 1004.78 314.579 1003.53 313.812Z" fill="white"/>
<path d="M1000.31 314.183C1000.99 314.739 1001.69 315.303 1002.13 315.044C1002.15 315.035 1002.17 315.016 1002.18 314.997C1002.23 314.809 1001.58 314.207 1001.28 313.925C1001.51 313.854 1001.74 313.784 1001.96 313.708C1002.46 314.174 1002.85 314.621 1002.81 315.063C1002.78 315.284 1002.65 315.482 1002.45 315.581C1002.28 315.684 1002.08 315.741 1001.88 315.741C1001.22 315.741 1000.54 315.181 999.879 314.64C999.767 314.546 999.649 314.452 999.532 314.362C999.795 314.31 1000.05 314.249 1000.31 314.183Z" fill="white"/>
<path d="M978.734 313.812L978.392 313.605C978.654 313.511 978.902 313.412 979.123 313.314C980.275 314.019 981.109 314.48 981.4 314.043C981.465 313.963 981.479 313.85 981.442 313.756C981.32 313.412 980.767 313.036 980.097 312.702C980.266 312.561 980.43 312.41 980.58 312.246C981.254 312.608 981.859 313.05 982.037 313.539C982.145 313.826 982.103 314.141 981.924 314.391C981.269 315.369 979.975 314.579 978.734 313.812Z" fill="white"/>
<path d="M975.712 314.353C976.326 314.847 976.935 315.28 977.328 315.049C977.347 315.04 977.366 315.021 977.38 315.002C977.417 314.852 977 314.428 976.672 314.118C976.911 314.057 977.15 313.991 977.375 313.925C977.759 314.316 978.04 314.692 978.003 315.068C977.975 315.289 977.844 315.487 977.647 315.586C977.474 315.689 977.277 315.746 977.075 315.746C976.419 315.746 975.74 315.186 975.075 314.645C975.023 314.602 974.972 314.56 974.92 314.518C975.187 314.466 975.449 314.41 975.712 314.353Z" fill="white"/>
<path d="M1019.64 148.792C1021.44 148.848 1023.22 148.27 1024.64 147.155C1026.03 146.026 1026.65 144.746 1026.49 143.349C1025.97 138.819 1017.55 134.623 1017.19 134.444L1017.05 134.735C1017.13 134.778 1025.68 139.035 1026.17 143.387C1026.32 144.671 1025.74 145.856 1024.45 146.905C1021.52 149.295 1017.04 148.67 1013.58 146.905C1013.91 146.741 1014.21 146.524 1014.48 146.275C1016.37 146.576 1018.67 146.412 1020.12 144.972C1021.61 143.5 1021.55 142.469 1021.24 141.867C1020.4 140.211 1016.68 139.741 1011.57 140.649C1009.69 140.978 1009.17 141.764 1009.06 142.361C1008.84 143.608 1010.2 145.315 1012.55 146.708C1012.65 146.764 1012.74 146.821 1012.85 146.877C1012.14 147.108 1011.41 147.221 1010.67 147.211V147.536C1011.54 147.55 1012.4 147.395 1013.22 147.08C1015.18 148.152 1017.39 148.74 1019.64 148.792ZM1014.07 146.205C1013.81 146.416 1013.52 146.59 1013.22 146.722C1013.04 146.628 1012.87 146.529 1012.7 146.43C1010.5 145.127 1009.16 143.518 1009.36 142.422C1009.49 141.707 1010.27 141.209 1011.61 140.969C1016.51 140.103 1020.18 140.512 1020.95 142.018C1021.32 142.747 1020.95 143.688 1019.88 144.746C1018.57 146.049 1016.49 146.242 1014.73 145.993C1014.82 145.871 1014.91 145.739 1014.98 145.598C1015.25 145.137 1015.22 144.558 1014.91 144.121C1014.46 143.528 1013.48 143.321 1012.23 143.561C1011.45 143.711 1011.02 143.975 1010.97 144.351C1010.91 144.742 1011.3 145.17 1012.06 145.551C1012.69 145.852 1013.37 146.073 1014.07 146.205ZM1013.21 143.787C1013.75 143.73 1014.29 143.928 1014.66 144.318C1014.89 144.657 1014.9 145.104 1014.69 145.457C1014.6 145.631 1014.49 145.791 1014.36 145.936C1013.61 145.814 1012.88 145.584 1012.2 145.259C1011.49 144.901 1011.26 144.577 1011.29 144.393C1011.3 144.295 1011.43 144.041 1012.29 143.876C1012.59 143.819 1012.9 143.787 1013.21 143.787Z" fill="#989A9C"/>
<path d="M956.695 140.841H971.955C972.822 140.982 973.637 140.389 973.778 139.519C973.848 139.067 973.726 138.611 973.44 138.258L965.808 124.987C965.499 124.164 964.58 123.75 963.76 124.06C963.334 124.22 963.001 124.559 962.837 124.987L955.21 138.258C954.657 138.94 954.755 139.947 955.439 140.502C955.786 140.789 956.245 140.911 956.695 140.841ZM964.327 124.573C964.754 124.625 965.114 124.903 965.283 125.298L972.911 138.564C973.29 138.964 973.281 139.594 972.883 139.98C972.634 140.22 972.283 140.314 971.955 140.229H956.695C956.161 140.361 955.622 140.036 955.491 139.5C955.406 139.166 955.505 138.813 955.739 138.569L963.367 125.298C963.536 124.898 963.901 124.625 964.327 124.573Z" fill="#989A9C"/>
<path d="M965.279 136.569C965.242 136.038 964.778 135.642 964.248 135.68C963.775 135.718 963.4 136.094 963.363 136.569C963.391 137.101 963.841 137.505 964.37 137.477C964.867 137.454 965.256 137.063 965.279 136.569ZM965.251 130.397H963.395L963.705 134.97H964.942L965.251 130.397Z" fill="#989A9C"/>
</g>
<defs>
<linearGradient id="paint0_linear" x1="889.387" y1="317.552" x2="889.387" y2="279.323" gradientUnits="userSpaceOnUse">
<stop stop-color="#B4E3E8"/>
<stop offset="1" stop-color="#4A4975"/>
</linearGradient>
<linearGradient id="paint1_linear" x1="922.795" y1="290.266" x2="921.149" y2="295.46" gradientUnits="userSpaceOnUse">
<stop stop-color="#1D164D"/>
<stop offset="1" stop-color="#4A4975"/>
</linearGradient>
<linearGradient id="paint2_linear" x1="940.751" y1="283.85" x2="931.173" y2="310.936" gradientUnits="userSpaceOnUse">
<stop stop-color="#5CA0D3"/>
<stop offset="1" stop-color="#6236D9"/>
</linearGradient>
<linearGradient id="paint3_linear" x1="967.693" y1="270.58" x2="944.154" y2="274.461" gradientUnits="userSpaceOnUse">
<stop stop-color="#5CA0D3"/>
<stop offset="1" stop-color="#6236D9"/>
</linearGradient>
<linearGradient id="paint4_linear" x1="934.274" y1="309.818" x2="934.274" y2="277.846" gradientUnits="userSpaceOnUse">
<stop stop-color="#6236D9"/>
<stop offset="1" stop-color="#6236D9" stop-opacity="0"/>
</linearGradient>
<linearGradient id="paint5_linear" x1="930.672" y1="308.503" x2="929.651" y2="288.632" gradientUnits="userSpaceOnUse">
<stop stop-color="#6236D9"/>
<stop offset="1" stop-color="#6236D9" stop-opacity="0"/>
</linearGradient>
<linearGradient id="paint6_linear" x1="983.825" y1="147.958" x2="979.624" y2="153.03" gradientUnits="userSpaceOnUse">
<stop stop-color="#FFC0AC"/>
<stop offset="1" stop-color="#FFD6C7"/>
</linearGradient>
<linearGradient id="paint7_linear" x1="1021.38" y1="325.779" x2="940.325" y2="295.811" gradientUnits="userSpaceOnUse">
<stop stop-color="#1D164D"/>
<stop offset="1" stop-color="#4A4975"/>
</linearGradient>
<linearGradient id="paint8_linear" x1="1011.15" y1="198.904" x2="1008.24" y2="232.625" gradientUnits="userSpaceOnUse">
<stop stop-color="#1D164D"/>
<stop offset="1" stop-color="#1D164D" stop-opacity="0"/>
</linearGradient>
<linearGradient id="paint9_linear" x1="973.96" y1="207.158" x2="989.092" y2="236.656" gradientUnits="userSpaceOnUse">
<stop stop-color="#5CA0D3"/>
<stop offset="1" stop-color="#6236D9"/>
</linearGradient>
<linearGradient id="paint10_linear" x1="1023.32" y1="251.427" x2="973.475" y2="169.386" gradientUnits="userSpaceOnUse">
<stop stop-color="#AFE3E9"/>
<stop offset="1" stop-color="#B2E1E6"/>
</linearGradient>
<linearGradient id="paint11_linear" x1="1000.93" y1="165.541" x2="992.731" y2="139.433" gradientUnits="userSpaceOnUse">
<stop stop-color="#1D164D"/>
<stop offset="1" stop-color="#4A4975"/>
</linearGradient>
<linearGradient id="paint12_linear" x1="987.507" y1="176.255" x2="997.86" y2="162.118" gradientUnits="userSpaceOnUse">
<stop stop-color="#FFC0AC"/>
<stop offset="1" stop-color="#FFD6C7"/>
</linearGradient>
<linearGradient id="paint13_linear" x1="1012.02" y1="310.723" x2="1010.14" y2="303.376" gradientUnits="userSpaceOnUse">
<stop stop-color="#FFC0AC"/>
<stop offset="1" stop-color="#FFD6C7"/>
</linearGradient>
<linearGradient id="paint14_linear" x1="987.982" y1="310.693" x2="986.009" y2="303.651" gradientUnits="userSpaceOnUse">
<stop stop-color="#FFC0AC"/>
<stop offset="1" stop-color="#FFD6C7"/>
</linearGradient>
<linearGradient id="paint15_linear" x1="973.951" y1="207.148" x2="989.173" y2="236.619" gradientUnits="userSpaceOnUse">
<stop stop-color="#5CA0D3"/>
<stop offset="1" stop-color="#6236D9"/>
</linearGradient>
<linearGradient id="paint16_linear" x1="990.384" y1="235.203" x2="975.447" y2="207.846" gradientUnits="userSpaceOnUse">
<stop stop-color="#6236D9"/>
<stop offset="1" stop-color="#6236D9" stop-opacity="0"/>
</linearGradient>
<linearGradient id="paint17_linear" x1="949.531" y1="203.768" x2="972.451" y2="206.769" gradientUnits="userSpaceOnUse">
<stop stop-color="#5CA0D3"/>
<stop offset="1" stop-color="#6236D9"/>
</linearGradient>
<linearGradient id="paint18_linear" x1="990.367" y1="222.234" x2="988.905" y2="215.288" gradientUnits="userSpaceOnUse">
<stop stop-color="#FFC0AC"/>
<stop offset="1" stop-color="#FFD6C7"/>
</linearGradient>
<linearGradient id="paint19_linear" x1="946.242" y1="203.111" x2="951.885" y2="209.859" gradientUnits="userSpaceOnUse">
<stop stop-color="#EAF5FF"/>
<stop offset="1" stop-color="#C9E2F4"/>
</linearGradient>
<linearGradient id="paint20_linear" x1="956.607" y1="203.137" x2="960.859" y2="210.358" gradientUnits="userSpaceOnUse">
<stop stop-color="#EAF5FF"/>
<stop offset="1" stop-color="#C9E2F4"/>
</linearGradient>
<linearGradient id="paint21_linear" x1="946.765" y1="214.6" x2="953.583" y2="218.398" gradientUnits="userSpaceOnUse">
<stop stop-color="#EAF5FF"/>
<stop offset="1" stop-color="#C9E2F4"/>
</linearGradient>
<linearGradient id="paint22_linear" x1="954.975" y1="213.479" x2="959.225" y2="220.7" gradientUnits="userSpaceOnUse">
<stop stop-color="#EAF5FF"/>
<stop offset="1" stop-color="#C9E2F4"/>
</linearGradient>
<clipPath id="clip0">
<rect width="229" height="217" fill="white" transform="matrix(-1 0 0 1 1087 101)"/>
</clipPath>
</defs>
</svg>
