<svg width="10" height="10" viewBox="0 0 10 10" fill="none" xmlns="http://www.w3.org/2000/svg">
<path fill-rule="evenodd" clip-rule="evenodd" d="M9.60116 4.08692H4.97505V6.00414H7.63727C7.3895 7.22248 6.35227 7.92248 4.97505 7.92248C3.35116 7.92248 2.04227 6.61359 2.04227 4.98914C2.04227 3.36526 3.35116 2.05637 4.97505 2.05637C5.6745 2.05637 6.30672 2.3047 6.80283 2.71081L8.24727 1.26692C7.36727 0.4997 6.23894 0.0263672 4.97505 0.0263672C2.22283 0.0263672 0.0117188 2.23692 0.0117188 4.9897C0.0117188 7.74248 2.22227 9.95303 4.97505 9.95303C7.45672 9.95303 9.71339 8.14803 9.71339 4.9897C9.71339 4.69637 9.66839 4.38026 9.60116 4.08692Z" fill="white"/>
</svg>
